Coordinates
version=1
nRows=65
nColumns=12
inDegrees=yes

Units are S.I. units (second, meters, Newtons, ...)
Angles are in degrees

endheader
time	SC_y	SC_z	SC_x	AC_y	AC_z	AC_x	GH_y	GH_z	GH_yy	EL_x	PS_y
       0.0              -18.64          37.41          18.19          48.43         -19.22          14.58          102.1         -5.169          175.2          121.2          142.0
  0.001393              -18.64          37.41          18.19          48.43         -19.22          14.58          102.1         -5.167          175.1          121.2          142.0
  0.002786              -18.64          37.41          18.19          48.42         -19.21          14.58          102.1         -5.165          175.1          121.2          142.0
  0.004178              -18.64           37.4          18.18          48.42         -19.21          14.58          102.0         -5.163          175.1          121.2          142.0
  0.005571              -18.64           37.4          18.18          48.42         -19.21          14.58          102.0         -5.161          175.0          121.2          141.9
  0.006964              -18.64          37.39          18.18          48.42         -19.21          14.58          102.0         -5.158          175.0          121.2          141.9
  0.008357              -18.64          37.39          18.17          48.42         -19.21          14.58          102.0         -5.156          174.9          121.2          141.9
  0.009749              -18.65          37.39          18.17          48.41          -19.2          14.58          102.0         -5.153          174.9          121.2          141.9
   0.01114              -18.65          37.38          18.17          48.41          -19.2          14.58          101.9          -5.15          174.8          121.1          141.8
   0.01253              -18.65          37.38          18.16          48.41          -19.2          14.58          101.9         -5.147          174.8          121.1          141.8
   0.01393              -18.65          37.37          18.16          48.41         -19.19          14.58          101.9         -5.144          174.7          121.1          141.8
   0.01532              -18.65          37.37          18.15           48.4         -19.19          14.58          101.8          -5.14          174.7          121.1          141.8
   0.01671              -18.65          37.36          18.15           48.4         -19.19          14.58          101.8         -5.136          174.6          121.1          141.7
   0.01811              -18.65          37.35          18.14           48.4         -19.18          14.58          101.8         -5.132          174.5          121.0          141.7
    0.0195              -18.65          37.35          18.13          48.39         -19.18          14.57          101.7         -5.128          174.4          121.0          141.6
   0.02089              -18.66          37.34          18.13          48.39         -19.18          14.57          101.7         -5.123          174.4          121.0          141.6
   0.02228              -18.66          37.33          18.12          48.38         -19.17          14.57          101.6         -5.118          174.3          121.0          141.5
   0.02368              -18.66          37.32          18.11          48.38         -19.17          14.57          101.6         -5.112          174.2          120.9          141.5
   0.02507              -18.66          37.31           18.1          48.37         -19.16          14.57          101.5         -5.106          174.0          120.9          141.4
   0.02646              -18.66           37.3          18.09          48.37         -19.15          14.57          101.4         -5.099          173.9          120.9          141.4
   0.02786              -18.67          37.29          18.08          48.36         -19.15          14.57          101.4         -5.091          173.8          120.8          141.3
   0.02925              -18.67          37.27          18.07          48.35         -19.14          14.57          101.3         -5.083          173.6          120.8          141.2
   0.03064              -18.67          37.26          18.06          48.35         -19.13          14.57          101.2         -5.074          173.5          120.7          141.1
   0.03203              -18.67          37.24          18.04          48.34         -19.12          14.56          101.1         -5.063          173.3          120.7          141.0
   0.03343              -18.68          37.22          18.03          48.33         -19.11          14.56          101.0         -5.052          173.1          120.6          140.9
   0.03482              -18.68           37.2          18.01          48.32          -19.1          14.56          100.9         -5.039          172.8          120.6          140.8
   0.03621              -18.69          37.18          17.99          48.31         -19.09          14.56          100.8         -5.025          172.6          120.5          140.7
    0.0376              -18.69          37.15          17.97          48.29         -19.07          14.56          100.6         -5.009          172.3          120.4          140.5
     0.039               -18.7          37.12          17.94          48.28         -19.06          14.55          100.5         -4.991          172.0          120.3          140.4
   0.04039              -18.71          37.09          17.91          48.26         -19.04          14.55          100.3         -4.971          171.6          120.2          140.2
   0.04178              -18.71          37.05          17.88          48.24         -19.02          14.55          100.0         -4.947          171.2          120.1          140.0
   0.04318              -18.72          37.01          17.84          48.22         -18.99          14.54           99.8          -4.92          170.7          119.9          139.7
   0.04457              -18.73          36.96           17.8          48.19         -18.96          14.54          99.51         -4.889          170.1          119.8          139.4
   0.04596              -18.74           36.9          17.75          48.16         -18.93          14.53          99.17         -4.853          169.5          119.6          139.1
   0.04735              -18.76          36.83          17.69          48.13         -18.89          14.53          98.78         -4.811          168.7          119.4          138.7
   0.04875              -18.77          36.75          17.62          48.09         -18.85          14.52          98.32         -4.762          167.8          119.1          138.2
   0.05014              -18.79          36.66          17.54          48.04         -18.79          14.51          97.78         -4.703          166.8          118.8          137.7
   0.05153              -18.82          36.54          17.44          47.98         -18.73           14.5          97.12         -4.632          165.5          118.4          137.0
   0.05293              -18.84          36.41          17.32          47.91         -18.65          14.49          96.33         -4.547          163.9          118.0          136.2
   0.05432              -18.88          36.24          17.18          47.82         -18.56          14.47          95.36         -4.442          162.0          117.4          135.2
   0.05571              -18.92          36.03           17.0          47.71         -18.44          14.45          94.17         -4.313          159.7          116.8          134.0
    0.0571              -18.97          35.77          16.77          47.58         -18.29          14.43          92.68         -4.152          156.8          115.9          132.5
    0.0585              -19.04          35.44          16.49          47.41         -18.11          14.39           90.8          -3.95          153.1          114.9          130.6
   0.05989              -19.13          35.03          16.13          47.19         -17.88          14.35          88.41         -3.692          148.5          113.5          128.2
   0.06128              -19.23          34.49          15.67          46.92         -17.58           14.3          85.36         -3.362          142.5          111.8          125.2
   0.06267              -19.37          33.81          15.07          46.56         -17.19          14.24          81.44         -2.939          134.8          109.6          121.2
   0.06407              -19.55          32.94          14.32          46.11          -16.7          14.16          76.43         -2.399          125.1          106.7          116.2
   0.06546              -19.77          31.84          13.37          45.54         -16.09          14.05          70.13          -1.72          112.8          103.2          109.8
   0.06685              -20.05           30.5          12.21          44.85         -15.34          13.93          62.46        -0.8917           97.8          98.83          102.1
   0.06825              -20.36          28.95          10.87          44.05         -14.47          13.78          53.56        0.06807          80.44           93.8          93.12
   0.06964               -20.7          27.27          9.416          43.18         -13.52          13.62          43.93          1.107          61.64          88.36          83.42
   0.07103              -21.04           25.6          7.963          42.31         -12.58          13.46           34.3          2.146          42.83          82.91          73.71
   0.07242              -21.36          24.05          6.621          41.51         -11.71          13.31          25.41          3.106          25.47          77.88          64.75
   0.07382              -21.63          22.71          5.463          40.82         -10.96          13.19          17.73          3.934          10.49          73.54          57.02
   0.07521              -21.85          21.61          4.513          40.25         -10.34          13.08          11.44          4.614         -1.801          69.98          50.68
    0.0766              -22.03          20.74          3.757           39.8         -9.854           13.0          6.427          5.154         -11.58          67.15          45.63
     0.078              -22.17          20.05          3.166          39.45         -9.471          12.93          2.507          5.577         -19.23          64.93          41.68
   0.07939              -22.28          19.52          2.705          39.17         -9.172          12.88        -0.5483          5.907         -25.19          63.21           38.6
   0.08078              -22.36          19.11          2.345          38.96         -8.938          12.84         -2.935          6.164         -29.85          61.86           36.2
   0.08217              -22.43          18.78          2.062          38.79         -8.754          12.81         -4.813          6.367         -33.52           60.8          34.31
   0.08357              -22.48          18.52          1.837          38.65         -8.608          12.79         -6.303          6.528         -36.43          59.95           32.8
   0.08496              -22.53          18.31          1.656          38.55         -8.491          12.77         -7.499          6.657         -38.76          59.28           31.6
   0.08635              -22.56          18.14           1.51          38.46         -8.397          12.75         -8.467          6.761         -40.65          58.73          30.62
   0.08774              -22.59           18.0          1.391          38.39         -8.319          12.74          -9.26          6.847          -42.2          58.28          29.83
   0.08914              -22.61          17.89          1.292          38.33         -8.255          12.73         -9.915          6.917         -43.48          57.91          29.17
